<svg width="24" height="24" viewBox="0 0 24 24" fill="none" xmlns="http://www.w3.org/2000/svg">
<g clip-path="url(#clip0_2_57)">
<path d="M17.6909 14.0889C20.6199 14.0889 23 11.6973 23 8.76529V3.43666H7.61647C7.18734 2.0257 5.88002 1 4.33817 1H1V3.00136H4.33817C5.12656 3.00136 5.77024 3.6468 5.77024 4.43734V16.8408C4.5178 17.2611 3.61465 18.4469 3.61465 19.8378C3.61465 21.584 5.03175 23 6.7682 23C8.50465 23 9.92175 21.579 9.92175 19.8378C9.92175 19.4276 9.84191 19.0373 9.69721 18.6771H16.9125C16.7677 19.0373 16.6879 19.4276 16.6879 19.8378C16.6879 21.584 18.105 23 19.8415 23C21.5779 23 22.995 21.579 22.995 19.8378C22.995 18.0967 21.5779 16.6757 19.8415 16.6757H7.76616V14.0889H17.6909ZM21.0041 8.76529C21.0041 10.5965 19.5171 12.0876 17.6909 12.0876H7.76616V5.43803H21.0041V8.76029V8.76529ZM7.92583 19.8378C7.92583 20.4783 7.4069 20.9986 6.7682 20.9986C6.12951 20.9986 5.61057 20.4783 5.61057 19.8378C5.61057 19.1974 6.12951 18.6771 6.7682 18.6771C7.4069 18.6771 7.92583 19.1974 7.92583 19.8378ZM21.0041 19.8378C21.0041 20.4783 20.4851 20.9986 19.8465 20.9986C19.2078 20.9986 18.6888 20.4783 18.6888 19.8378C18.6888 19.1974 19.2078 18.6771 19.8465 18.6771C20.4851 18.6771 21.0041 19.1974 21.0041 19.8378Z" fill="white"/>
</g>
<defs>
<clipPath id="clip0_2_57">
<rect width="22" height="22" fill="white" transform="translate(1 1)"/>
</clipPath>
</defs>
</svg>
