<?xml version="1.0" encoding="UTF-8"?>
<svg xmlns="http://www.w3.org/2000/svg" width="1600" height="1003" viewBox="0 0 1600 1003" fill="none">
  <g clip-path="url(#clip0_8_311)">
    <path d="M712.59 917.663C769.168 917.663 815.034 871.817 815.034 815.263C815.034 758.709 769.168 712.863 712.59 712.863C656.012 712.863 610.146 758.709 610.146 815.263C610.146 871.817 656.012 917.663 712.59 917.663Z" fill="#0152A1"></path>
    <path d="M27.13 632.242H0V1000.04H367.935C367.935 796.932 215.348 632.242 27.13 632.242Z" fill="#142440"></path>
    <path d="M1190.96 0H1300.48C1302.55 79.1749 1334.35 153.322 1390.62 209.539C1446.81 265.711 1520.88 297.501 1600.02 299.614V409.089C1376.04 404.639 1195.32 223.91 1190.98 0L1190.96 0Z" fill="#0152A1"></path>
    <path d="M1326.97 409.085L1224.63 511.38L1326.97 613.676L1429.31 511.38L1326.97 409.085Z" fill="#0152A1"></path>
    <path d="M815.056 409.089H1224.56C1222.9 297.479 1131.87 207.514 1019.81 207.514C907.752 207.514 816.725 297.479 815.056 409.089Z" fill="#0152A1"></path>
    <path d="M1600 818.222H1224.61C1226.15 920.533 1309.58 1003 1412.32 1003C1515.05 1003 1598.49 920.533 1600.02 818.222H1600Z" fill="#0152A1"></path>
    <path d="M815.034 818.355H1224.61V408.955L815.034 408.955V818.355Z" fill="#142440"></path>
    <path d="M610.257 613.822L405.325 408.955H815.19L610.257 613.822Z" fill="#0152A1"></path>
    <path d="M0 513.602H195.006L195.006 318.679H0L0 513.602Z" fill="#142440"></path>
    <path d="M303.103 309.914C359.682 309.914 405.547 264.068 405.547 207.514C405.547 150.96 359.682 105.114 303.103 105.114C246.525 105.114 200.659 150.96 200.659 207.514C200.659 264.068 246.525 309.914 303.103 309.914Z" fill="#142440"></path>
  </g>
  <defs>
    <clipPath id="clip0_8_311">
      <rect width="1600" height="1003" fill="white"></rect>
    </clipPath>
  </defs>
</svg>
