<svg width="380" height="380" viewBox="0 0 380 380" fill="none" xmlns="http://www.w3.org/2000/svg">
<g clip-path="url(#clip0_51_407)">
<path d="M379.979 284.569V233.705C343.219 232.745 308.792 217.972 282.685 191.843C256.609 165.745 241.837 131.336 240.856 94.5948H190.026C192.09 198.625 276.006 282.556 379.969 284.569H379.979Z" fill="#FEA11F"/>
<path d="M95.0542 284.941L0 380H190.108L95.0542 284.941Z" fill="white"/>
<path d="M285.018 94.9871L380 94.9871V2.28882e-05L285.018 2.28882e-05V94.9871Z" fill="#FF6A15"/>
<path d="M285.008 372.908C285.008 375.261 285.008 377.574 285.008 379.907H379.979V284.941C327.539 284.941 285.008 324.325 285.008 372.897V372.908Z" fill="#0152A1"/>
<path d="M95.0542 94.2335V0H189.283L95.0542 94.2335Z" fill="#0152A1"/>
<path d="M94.9612 260.67C107.778 260.67 118.167 250.28 118.167 237.463C118.167 224.645 107.778 214.255 94.9612 214.255C82.1449 214.255 71.7551 224.645 71.7551 237.463C71.7551 250.28 82.1449 260.67 94.9612 260.67Z" fill="#FF6A15"/>
</g>
<defs>
<clipPath id="clip0_51_407">
<rect width="380" height="380" fill="white"/>
</clipPath>
</defs>
</svg>
