<svg width="285" height="380" viewBox="0 0 285 380" fill="none" xmlns="http://www.w3.org/2000/svg">
<g clip-path="url(#clip0_51_401)">
<path d="M93.8332 94.6744H-0.617188V189.008L93.8332 94.6744Z" fill="#FEA11F"/>
<path d="M190.55 94.3334V0H96.0992L190.55 94.3334Z" fill="#0152A1"/>
<path d="M239.358 69.9233C250.93 69.9233 260.311 60.5538 260.311 48.9959C260.311 37.4381 250.93 28.0685 239.358 28.0685C227.786 28.0685 218.405 37.4381 218.405 48.9959C218.405 60.5538 227.786 69.9233 239.358 69.9233Z" fill="white"/>
<path d="M285 380H94.2057C94.9817 327.304 137.395 284.829 189.598 284.829C241.8 284.829 284.214 327.304 284.99 380H285Z" fill="#FF6A15"/>
<path d="M-1.00002 284.829H94.2057L94.2057 189.742H-1.00002L-1.00002 284.829Z" fill="white"/>
</g>
<defs>
<clipPath id="clip0_51_401">
<rect width="286" height="380" fill="white" transform="translate(-1)"/>
</clipPath>
</defs>
</svg>
