<svg width="13" height="16" viewBox="0 0 13 16" fill="none" xmlns="http://www.w3.org/2000/svg">
<path d="M11.6278 3.09903V2.01819H12.75V0.208328H0.25V2.01819H1.37219V3.09903C1.37219 4.50266 1.91944 5.81926 2.86845 6.81305C3.28755 7.25191 3.7863 7.62912 4.3474 7.91927L4.54482 8.02083L4.3474 8.12238C2.51171 9.07265 1.37219 10.9188 1.37219 12.939V14.0198H0.25V15.8297H12.75V14.0198H11.6278V12.939C11.6278 10.9152 10.4883 9.06902 8.6526 8.12238L8.45518 8.02083L8.6526 7.91927C10.4883 6.96901 11.6278 5.12288 11.6278 3.10265V3.09903ZM7.88716 9.74727C9.12711 10.3892 9.89949 11.6115 9.89949 12.9426V14.0235H3.10051V12.9426C3.10051 11.6152 3.87289 10.3892 5.11284 9.74727L6.49827 9.02913L7.88369 9.74727H7.88716ZM5.11284 6.29439C3.87289 5.65242 3.10051 4.4265 3.10051 3.09903V2.01819H9.89602V3.09903C9.89602 4.4265 9.12365 5.65242 7.88369 6.29439L6.49827 7.01253L5.11284 6.29439Z" fill="#FF6A15"/>
</svg>
