<svg width="24" height="24" viewBox="0 0 24 24" fill="none" xmlns="http://www.w3.org/2000/svg">
<g clip-path="url(#clip0_72_7792)">
<path d="M12.4975 21L11.6671 20.3108C11.3935 20.0825 4.99512 14.7166 4.99512 9.99503C4.99992 6.13725 8.36472 3 12.4975 3C16.6303 3 19.9951 6.13725 19.9951 9.99055C19.9951 14.7121 13.5967 20.0825 13.3231 20.3063L12.4927 20.9955L12.4975 21ZM12.4975 5.3272C9.73752 5.3272 7.49112 7.42168 7.49112 9.99503C7.49112 12.5684 10.5919 16.0636 12.4975 17.8404C14.4031 16.0592 17.5039 12.6131 17.5039 9.99503C17.5039 7.37693 15.2623 5.32273 12.4975 5.32273V5.3272Z" fill="#FF6A15"/>
</g>
<defs>
<clipPath id="clip0_72_7792">
<rect width="15" height="18" fill="white" transform="translate(5 3)"/>
</clipPath>
</defs>
</svg>
