<svg width="19" height="19" viewBox="0 0 19 19" fill="none" xmlns="http://www.w3.org/2000/svg">
<path d="M17.6488 16.3354C17.7491 16.1032 17.8071 15.8551 17.8071 15.6175C17.8177 14.9472 17.8177 14.2715 17.8124 13.617V13.332C17.8124 13.1155 17.8019 12.8886 17.7808 12.6246C17.7491 12.2076 17.5327 11.8645 17.1579 11.6428C16.8623 11.4686 16.5614 11.4634 16.3397 11.4634C15.643 11.4528 15.0412 11.3842 14.487 11.247C14.2917 11.1994 14.0805 11.1308 13.8641 11.0569C13.7216 11.0094 13.5896 10.9672 13.4524 10.925C13.3363 10.888 13.2149 10.8722 13.0935 10.8722C12.5867 10.8933 12.307 11.1731 12.1222 11.3578L10.6073 12.878L10.1217 12.5719C9.50935 12.1865 8.92872 11.759 8.40087 11.2945C7.41907 10.4341 6.63785 9.52088 6.01499 8.49685L5.71411 8.00068L7.28182 6.4963C7.71994 6.07402 7.86246 5.52506 7.67771 4.95498C7.37684 4.03125 7.22376 3.07584 7.20793 2.04653C7.19737 1.51868 6.92817 1.10696 6.46894 0.916933C6.26307 0.832478 6.03082 0.784971 5.79857 0.779693C5.40796 0.779693 5.02263 0.774414 4.63202 0.774414H3.45491C3.22794 0.774414 2.99041 0.79025 2.70537 0.806085C2.15113 0.848313 1.68662 1.27587 1.59161 1.82483L1.54938 2.05709L1.57577 2.61661C1.61272 4.33212 1.97166 6.05291 2.6473 7.73675C3.14876 8.98248 3.82969 10.1649 4.66897 11.2522C5.33934 12.1179 6.10472 12.915 6.94928 13.6117C8.15278 14.6041 9.49352 15.4011 10.9345 15.9765C11.7791 16.3143 12.6553 16.573 13.5316 16.7471C14.4236 16.9213 15.226 17.0111 15.9861 17.0163L16.1814 17.0427L16.762 17.0005C17.179 16.9213 17.4904 16.6838 17.6382 16.3354H17.6488Z" fill="#18233E"/>
</svg>
