<svg width="14" height="15" viewBox="0 0 14 15" fill="none" xmlns="http://www.w3.org/2000/svg">
<path d="M10.3014 8.60163C11.2301 7.69473 11.8152 6.4095 11.8152 4.98516C11.8098 2.23665 9.65184 0 7 0C4.34816 0 2.19018 2.23665 2.19018 4.98516C2.19018 6.4095 2.77531 7.69473 3.70399 8.60163C1.50307 9.82567 0 12.2348 0 15H2.14724C2.14724 12.2237 4.32669 9.97033 7 9.97033C9.67331 9.97033 11.8528 12.2292 11.8528 15H14C14 12.2348 12.4969 9.82567 10.296 8.60163H10.3014ZM4.34279 4.98516C4.34279 3.46068 5.53988 2.22552 7.00537 2.22552C8.47086 2.22552 9.66794 3.46068 9.66794 4.98516C9.66794 6.50964 8.47086 7.74481 7.00537 7.74481C5.53988 7.74481 4.34279 6.50964 4.34279 4.98516Z" fill="#FF6A15"/>
</svg>
