<svg width="15" height="18" viewBox="0 0 15 18" fill="none" xmlns="http://www.w3.org/2000/svg">
<g clip-path="url(#clip0_112_1208)">
<path d="M7.49752 18L6.66712 17.3108C6.39352 17.0825 -0.00488281 11.7166 -0.00488281 6.99503C-8.28127e-05 3.13725 3.36472 0 7.49752 0C11.6303 0 14.9951 3.13725 14.9951 6.99055C14.9951 11.7121 8.59672 17.0825 8.32312 17.3063L7.49272 17.9955L7.49752 18ZM7.49752 2.3272C4.73752 2.3272 2.49112 4.42168 2.49112 6.99503C2.49112 9.56837 5.59192 13.0636 7.49752 14.8404C9.40312 13.0592 12.5039 9.61313 12.5039 6.99503C12.5039 4.37693 10.2623 2.32272 7.49752 2.32272V2.3272Z" fill="#FF6A15"/>
</g>
<defs>
<clipPath id="clip0_112_1208">
<rect width="15" height="18" fill="white"/>
</clipPath>
</defs>
</svg>
